<svg xmlns="http://www.w3.org/2000/svg" version="1.1" xmlns:xlink="http://www.w3.org/1999/xlink" xmlns:svgjs="http://svgjs.dev/svgjs" width="2000" height="459" viewBox="0 0 2000 459"><g transform="matrix(1,0,0,1,1.1609830920237982,2.2581999521143814)"><svg viewBox="0 0 396 91" data-background-color="#ffffff" preserveAspectRatio="xMidYMid meet" height="459" width="2000" xmlns="http://www.w3.org/2000/svg" xmlns:xlink="http://www.w3.org/1999/xlink"><g id="tight-bounds" transform="matrix(1,0,0,1,0.23999999999995225,0.024256729138130595)"><svg viewBox="0 0 395.52 90.95148654172374" height="90.95148654172374" width="395.52"><g><svg viewBox="0 0 540.953450904721 124.3945198969957" height="90.95148654172374" width="395.52"><g transform="matrix(1,0,0,1,145.433450904721,17.637603296137343)"><svg viewBox="0 0 395.52 89.11931330472102" height="89.11931330472102" width="395.52"><g id="textblocktransform"><svg viewBox="0 0 395.52 89.11931330472102" height="89.11931330472102" width="395.52" id="textblock"><g><svg viewBox="0 0 395.52 89.11931330472102" height="89.11931330472102" width="395.52"><g transform="matrix(1,0,0,1,0,0)"><svg width="395.52" viewBox="4.38 -33.33 194.14000000000001 43.75" height="89.11931330472102" data-palette-color="#000000"><path d="M8.13 0L4.38 0 4.38-32.29 18.89-12.29 33.13-32.29 33.13 0 29.17 0 29.17-14.44Q29.17-15.87 29.2-17.55 29.24-19.24 29.44-21.39L29.44-21.39Q28.37-19.48 27.34-18.04 26.32-16.6 25.49-15.38L25.49-15.38 18.75-5.83 11.81-15.38Q10.94-16.6 9.95-18.04 8.96-19.48 7.85-21.39L7.85-21.39Q8.06-19.24 8.09-17.55 8.13-15.87 8.13-14.44L8.13-14.44 8.13 0ZM50.34 0.42L50.34 0.42Q47.32 0.42 44.82-1.04 42.32-2.5 40.85-4.97 39.37-7.43 39.37-10.42L39.37-10.42Q39.37-13.44 40.85-15.89 42.32-18.33 44.82-19.79 47.32-21.25 50.34-21.25L50.34-21.25Q53.4-21.25 55.88-19.79 58.37-18.33 59.84-15.89 61.32-13.44 61.32-10.42L61.32-10.42Q61.32-7.43 59.84-4.97 58.37-2.5 55.88-1.04 53.4 0.42 50.34 0.42ZM50.34-3.13L50.34-3.13Q52.36-3.13 53.99-4.11 55.62-5.1 56.59-6.75 57.57-8.4 57.57-10.42L57.57-10.42Q57.57-12.43 56.59-14.08 55.62-15.73 53.99-16.72 52.36-17.71 50.34-17.71L50.34-17.71Q48.33-17.71 46.7-16.72 45.07-15.73 44.09-14.08 43.12-12.43 43.12-10.42L43.12-10.42Q43.12-8.4 44.09-6.75 45.07-5.1 46.7-4.11 48.33-3.13 50.34-3.13ZM70.27 0L66.52 0 66.52-20.83 70-20.83 70-17.47Q71.14-19.31 72.96-20.28 74.79-21.25 76.9-21.25L76.9-21.25Q79.13-21.25 81.02-20.16 82.91-19.06 84.09-17 85.27-14.93 85.27-11.98L85.27-11.98 85.27 0 81.52 0 81.52-11.46Q81.52-13.92 80.05-15.82 78.57-17.71 75.9-17.71L75.9-17.71Q73.71-17.71 71.99-16.13 70.27-14.55 70.27-11.56L70.27-11.56 70.27 0ZM101.03 0.42L101.03 0.42Q98.01 0.42 95.51-1.04 93.01-2.5 91.54-4.97 90.06-7.43 90.06-10.42L90.06-10.42Q90.06-13.44 91.54-15.89 93.01-18.33 95.51-19.79 98.01-21.25 101.03-21.25L101.03-21.25Q104.09-21.25 106.57-19.79 109.06-18.33 110.53-15.89 112.01-13.44 112.01-10.42L112.01-10.42Q112.01-7.43 110.53-4.97 109.06-2.5 106.57-1.04 104.09 0.42 101.03 0.42ZM101.03-3.13L101.03-3.13Q103.05-3.13 104.68-4.11 106.31-5.1 107.28-6.75 108.26-8.4 108.26-10.42L108.26-10.42Q108.26-12.43 107.28-14.08 106.31-15.73 104.68-16.72 103.05-17.71 101.03-17.71L101.03-17.71Q99.02-17.71 97.39-16.72 95.76-15.73 94.78-14.08 93.81-12.43 93.81-10.42L93.81-10.42Q93.81-8.4 94.78-6.75 95.76-5.1 97.39-4.11 99.02-3.13 101.03-3.13ZM120.96 10.42L117.21 10.42 117.21-20.83 120.68-20.83 120.68-18.09Q122.11-19.51 123.98-20.31 125.86-21.11 128.01-21.11L128.01-21.11Q130.89-21.11 133.24-19.67 135.58-18.23 136.99-15.8 138.39-13.37 138.39-10.42L138.39-10.42Q138.39-7.47 136.99-5.03 135.58-2.6 133.24-1.16 130.89 0.28 128.01 0.28L128.01 0.28Q125.96 0.28 124.16-0.45 122.35-1.18 120.96-2.47L120.96-2.47 120.96 10.42ZM127.52-3.13L127.52-3.13Q129.5-3.13 131.12-4.11 132.73-5.1 133.69-6.75 134.64-8.4 134.64-10.42L134.64-10.42Q134.64-12.43 133.69-14.08 132.73-15.73 131.12-16.72 129.5-17.71 127.52-17.71L127.52-17.71Q125.55-17.71 123.93-16.72 122.32-15.73 121.36-14.08 120.41-12.43 120.41-10.42L120.41-10.42Q120.41-8.4 121.36-6.75 122.32-5.1 123.93-4.11 125.55-3.13 127.52-3.13ZM153.11 0.42L153.11 0.42Q150.09 0.42 147.59-1.04 145.09-2.5 143.62-4.97 142.14-7.43 142.14-10.42L142.14-10.42Q142.14-13.44 143.62-15.89 145.09-18.33 147.59-19.79 150.09-21.25 153.11-21.25L153.11-21.25Q156.17-21.25 158.65-19.79 161.13-18.33 162.61-15.89 164.08-13.44 164.08-10.42L164.08-10.42Q164.08-7.43 162.61-4.97 161.13-2.5 158.65-1.04 156.17 0.42 153.11 0.42ZM153.11-3.13L153.11-3.13Q155.13-3.13 156.76-4.11 158.39-5.1 159.36-6.75 160.33-8.4 160.33-10.42L160.33-10.42Q160.33-12.43 159.36-14.08 158.39-15.73 156.76-16.72 155.13-17.71 153.11-17.71L153.11-17.71Q151.1-17.71 149.47-16.72 147.83-15.73 146.86-14.08 145.89-12.43 145.89-10.42L145.89-10.42Q145.89-8.4 146.86-6.75 147.83-5.1 149.47-4.11 151.1-3.13 153.11-3.13ZM173.04 0L169.29 0 169.29-33.33 173.04-33.33 173.04 0ZM182.9 10.42L178.84 10.42 185.61-3.06 176.79-20.83 181.02-20.83 185.47-11.81Q186.06-10.59 186.61-9.41 187.17-8.23 187.73-6.56L187.73-6.56Q188.32-8.23 188.85-9.43 189.39-10.63 190.02-11.81L190.02-11.81 194.53-20.83 198.52-20.83 182.9 10.42Z" opacity="1" transform="matrix(1,0,0,1,0,0)" fill="#000000" class="wordmark-text-0" data-fill-palette-color="primary" id="text-0"></path></svg></g></svg></g></svg></g></svg></g><g><svg viewBox="0 0 124.3945198969957 124.3945198969957" height="124.3945198969957" width="124.3945198969957"><g><svg xmlns="http://www.w3.org/2000/svg" xml:space="preserve" viewBox="0 0 100 100" x="0" y="0" height="124.3945198969957" width="124.3945198969957" class="icon-icon-0" data-fill-palette-color="accent" id="icon-0"><path d="M15.792 23.458h41.833a2.5 2.5 0 1 0 0-5H15.792a2.5 2.5 0 1 0 0 5M34 33.185a2.5 2.5 0 0 0-2.5-2.5H15.792a2.5 2.5 0 1 0 0 5H31.5a2.5 2.5 0 0 0 2.5-2.5" fill="#000000" data-fill-palette-color="accent"></path><path d="M73 32.728V2.5A2.5 2.5 0 0 0 70.5 0h-68A2.5 2.5 0 0 0 0 2.5v95a2.5 2.5 0 0 0 2.5 2.5h63c0.034 0 0.066-0.009 0.101-0.01 0.133 0.001 0.265 0.01 0.399 0.01 18.748 0 34-15.252 34-34 0-16.348-11.599-30.036-27-33.272M5 95V5h63v27.064A34 34 0 0 0 66 32c-18.748 0-34 15.252-34 34 0 12.257 6.52 23.016 16.273 29z m61 0c-15.991 0-29-13.01-29-29s13.009-29 29-29 29 13.009 29 29-13.01 29-29 29" fill="#000000" data-fill-palette-color="accent"></path><path d="M67.453 63.356c-4.828-1.881-7.76-3.221-7.76-5.961 0-4.349 4.293-5.509 6.83-5.509 1.807 0 3.522 0.514 4.709 1.407 1.204 0.908 1.815 2.163 1.815 3.73a2.5 2.5 0 1 0 5 0c0-5.887-4.537-9.286-9.548-9.993v-2.584a2.5 2.5 0 1 0-5 0v2.763c-1.826 0.392-3.508 1.132-4.896 2.188-2.522 1.92-3.911 4.76-3.911 7.997 0 6.355 6.068 8.721 10.944 10.62 4.957 1.932 7.967 3.316 7.967 6.251 0 1.819-0.689 3.262-2.049 4.289-1.31 0.99-3.222 1.558-5.245 1.558-3.813 0-7.915-1.917-7.915-6.125a2.5 2.5 0 1 0-5 0c0 6.231 4.731 9.917 10.104 10.869v2.696a2.5 2.5 0 1 0 5 0v-2.595c2.294-0.323 4.398-1.15 6.069-2.413 2.603-1.966 4.035-4.905 4.035-8.278 0.002-6.564-6.181-8.973-11.149-10.91" fill="#000000" data-fill-palette-color="accent"></path></svg></g></svg></g></svg></g><defs></defs></svg><rect width="395.52" height="90.95148654172374" fill="none" stroke="none" visibility="hidden"></rect></g></svg></g></svg>