<svg xmlns="http://www.w3.org/2000/svg" viewBox="0 0 370 61.25" preserveAspectRatio="xMidYMid meet">
  <style>
    path {
      fill: black;
    }
    @media (prefers-color-scheme: dark) {
      path {
        fill: white;
      }
    }
  </style>
  <g transform="translate(-6.25) scale(1.25)" fill="#111">
    <path d="M5 4.01A4.009 4.009 0 0 1 9 0h32c2.21 0 4 1.794 4 4.01v39.98A4.009 4.009 0 0 1 41 48H9c-2.21 0-4-1.794-4-4.01V4.01Zm4 39.98c0 .008 32 .01 32 .01-.005 0 0-39.99 0-39.99C41 4.002 9 4 9 4c.005 0 0 39.99 0 39.99ZM13 14a2 2 0 0 1 1.99-2h16.02c1.099 0 1.99.888 1.99 2a2 2 0 0 1-1.99 2H14.99A1.99 1.99 0 0 1 13 14Zm0 8a2 2 0 0 1 1.99-2h16.02c1.099 0 1.99.888 1.99 2a2 2 0 0 1-1.99 2H14.99A1.99 1.99 0 0 1 13 22Zm0 8c0-1.105.902-2 2.009-2h7.982a2 2 0 1 1 0 4H15.01A2 2 0 0 1 13 30Z" fill-rule="nonzero" fill="#111" xmlns="http://www.w3.org/2000/svg"/>
  </g>
  <path d="M79.326 17c4.555 0 7.339 2.82 8.712 5.205l-4.265 2.567c-1.41-1.807-2.64-2.639-4.447-2.639-1.554 0-2.71.904-2.71 2.17 0 1.3.722 1.951 2.53 2.566l1.699.614c5.892 2.06 7.916 4.663 7.916 8.025 0 5.278-4.988 7.772-9.326 7.772-4.627 0-8.17-2.747-9.435-6.253l4.446-2.386c.904 1.626 2.242 3.398 4.989 3.398 1.88 0 3.29-.76 3.29-2.458 0-1.555-.868-2.278-3.58-3.29l-1.445-.506c-3.724-1.338-6.869-3.109-6.869-7.736 0-4.12 3.905-7.049 8.495-7.049zm21.69 20.966c1.012 0 1.735-.144 2.53-.361v4.735c-.795.362-2.096.615-4.012.615-3.145 0-5.784-1.048-5.784-6.832V28.64H91.11v-4.7h2.639v-4.41h5.711v4.41h4.013v4.7H99.46v7.483c0 .831.217 1.843 1.555 1.843zm19.086-14.025h5.712v18.797h-5.712v-1.88c-.253.651-1.952 2.242-4.844 2.242-4.301 0-9.254-3.073-9.254-9.797 0-6.47 4.953-9.688 9.254-9.688 2.892 0 4.591 1.663 4.844 2.06v-1.734zm-4.012 14.134c2.35 0 4.265-1.627 4.265-4.772 0-3.036-1.915-4.663-4.265-4.663-2.458 0-4.555 1.663-4.555 4.663 0 3.109 2.097 4.772 4.555 4.772zm22.557-.109c1.012 0 1.735-.144 2.53-.361v4.735c-.795.362-2.096.615-4.012.615-3.145 0-5.784-1.048-5.784-6.832V28.64h-2.639v-4.7h2.639v-4.41h5.711v4.41h4.013v4.7h-4.013v7.483c0 .831.217 1.843 1.555 1.843zm14.893-14.35c4.266 0 10.23 3.217 9.037 11.712h-13.122c.651 1.952 2.35 2.964 4.627 2.964 2.314 0 3.037-.506 4.338-1.049l3.145 3.037c-1.663 1.627-3.904 2.82-7.7 2.82-4.663 0-10.23-3.218-10.23-9.688 0-6.58 5.64-9.797 9.905-9.797zm0 4.88c-1.627 0-3.29.94-4.012 2.819h7.989c-.579-1.88-2.35-2.82-3.977-2.82zm37.414-4.845c4.013 0 7.555 2.603 7.555 8.965v10.122h-5.711v-9.94c0-2.387-1.012-4.194-3.651-4.194-2.205 0-3.687 1.952-4.121 3.687v10.447h-5.712v-9.94c0-2.387-1.482-4.194-3.65-4.194-2.35 0-3.76 1.59-4.122 3.687v10.447h-5.711V23.941h5.711v3.434c.073-.868 1.916-3.724 5.603-3.724 2.712 0 5.314 1.446 6.869 4.085.434-1.012 2.602-4.085 6.94-4.085zm20.352-.036c4.266 0 10.23 3.218 9.037 11.713h-13.122c.651 1.952 2.35 2.964 4.627 2.964 2.314 0 3.037-.506 4.338-1.049l3.145 3.037c-1.663 1.627-3.904 2.82-7.7 2.82-4.663 0-10.23-3.218-10.23-9.688 0-6.58 5.64-9.797 9.905-9.797zm0 4.88c-1.627 0-3.29.94-4.012 2.82h7.989c-.579-1.88-2.35-2.82-3.977-2.82zm23.822-4.844c3.507 0 7.086 2.35 7.086 8.315v10.772h-5.712V32.363c0-2.855-.976-3.76-2.783-3.76-2.567 0-4.05 2.495-4.41 3.58v10.555h-5.712V23.941h5.711v3.253c.362-.904 2.278-3.543 5.82-3.543zm19.702 14.315c1.012 0 1.735-.144 2.53-.361v4.735c-.795.362-2.097.615-4.013.615-3.145 0-5.783-1.048-5.783-6.832V28.64h-2.64v-4.7h2.64v-4.41h5.711v4.41h4.013v4.7h-4.013v7.483c0 .831.217 1.843 1.555 1.843zM269.144 17c4.555 0 7.339 2.82 8.712 5.205l-4.265 2.567c-1.41-1.807-2.64-2.639-4.447-2.639-1.554 0-2.71.904-2.71 2.17 0 1.3.722 1.951 2.53 2.566l1.699.614c5.892 2.06 7.916 4.663 7.916 8.025 0 5.278-4.988 7.772-9.326 7.772-4.627 0-8.17-2.747-9.435-6.253l4.446-2.386c.904 1.626 2.242 3.398 4.989 3.398 1.88 0 3.29-.76 3.29-2.458 0-1.555-.868-2.278-3.58-3.29l-1.445-.506c-3.724-1.338-6.869-3.109-6.869-7.736 0-4.12 3.905-7.049 8.495-7.049zm21.87 6.615c4.266 0 10.23 3.218 9.038 11.713H286.93c.65 1.952 2.35 2.964 4.627 2.964 2.313 0 3.036-.506 4.338-1.049l3.145 3.037c-1.663 1.627-3.904 2.82-7.7 2.82-4.663 0-10.23-3.218-10.23-9.688 0-6.58 5.639-9.797 9.905-9.797zm0 4.88c-1.626 0-3.289.94-4.012 2.82h7.989c-.578-1.88-2.35-2.82-3.976-2.82zm23.823-4.844c3.506 0 7.085 2.35 7.085 8.315v10.772h-5.712V32.363c0-2.855-.976-3.76-2.783-3.76-2.567 0-4.049 2.495-4.41 3.58v10.555h-5.712V23.941h5.712v3.253c.361-.904 2.277-3.543 5.82-3.543zm19.484 6.218c-.506-1.301-1.265-1.735-2.097-1.735-.759 0-1.518.434-1.518 1.157 0 .686.434 1.084 1.265 1.373l2.386.832c2.675.976 5.386 1.952 5.386 5.711 0 3.796-3.795 5.965-7.7 5.965-3.506 0-6.795-2.06-7.59-5.35l4.482-1.41c.47 1.048 1.301 2.241 3.109 2.241 1.229 0 2.024-.795 2.024-1.518 0-.362-.29-.831-1.193-1.193l-2.205-.795c-3.76-1.374-5.53-3.29-5.53-5.965 0-3.506 3.253-5.567 6.831-5.567 3.651 0 6.073 1.988 7.158 4.989zm17.677-6.254c4.265 0 10.23 3.218 9.037 11.713h-13.122c.65 1.952 2.35 2.964 4.627 2.964 2.314 0 3.037-.506 4.338-1.049l3.145 3.037c-1.663 1.627-3.904 2.82-7.7 2.82-4.663 0-10.23-3.218-10.23-9.688 0-6.58 5.64-9.797 9.905-9.797zm0 4.88c-1.627 0-3.29.94-4.013 2.82h7.99c-.58-1.88-2.35-2.82-3.977-2.82zM370 17.181v4.808h-5.712V17.18H370zm0 6.76v18.797h-5.712V23.941H370z" fill="#111"/>
</svg>
